<svg xmlns="http://www.w3.org/2000/svg" width="240" height="240" viewBox="-28 -28 285 285">
  <defs><clipPath id="c"><path d="M228.541 114.228C228.541 130.133 225.184 145.994 218.738 160.534C212.674 174.217 203.904 186.669 193.065 196.988C155.933 232.34 99.497 238.596 55.5255 212.24C45.097 205.99 35.6851 198.072 27.7451 188.866C19.1926 178.953 12.3686 167.569 7.65781 155.351C2.60712 142.264 0 128.257 0 114.228C0 98.3219 3.35751 82.4611 9.80315 67.9215C15.8672 54.2382 24.6377 41.7862 35.4767 31.4668C72.6081 -3.88483 129.044 -10.1413 173.016 16.2153C183.444 22.4653 192.856 30.3829 200.796 39.5896C209.349 49.5018 216.173 60.8859 220.883 73.1037C225.934 86.1906 228.541 100.198 228.541 114.228Z"/></clipPath></defs>
  <path d="M228.541 114.228C228.541 130.133 225.184 145.994 218.738 160.534C212.674 174.217 203.904 186.669 193.065 196.988C155.933 232.34 99.497 238.596 55.5255 212.24C45.097 205.99 35.6851 198.072 27.7451 188.866C19.1926 178.953 12.3686 167.569 7.65781 155.351C2.60712 142.264 0 128.257 0 114.228C0 98.3219 3.35751 82.4611 9.80315 67.9215C15.8672 54.2382 24.6377 41.7862 35.4767 31.4668C72.6081 -3.88483 129.044 -10.1413 173.016 16.2153C183.444 22.4653 192.856 30.3829 200.796 39.5896C209.349 49.5018 216.173 60.8859 220.883 73.1037C225.934 86.1906 228.541 100.198 228.541 114.228Z" fill="#ff5d9e"/>
  <g clip-path="url(#c)">
    <path d="M130.36,45.98C131.14,45.98 131.94,46.05 132.71,46.19C133.48,46.33 134.25,46.54 134.98,46.81C135.71,47.08 136.45,47.42 137.11,47.83C137.78,48.24 138.41,48.74 138.97,49.28C139.53,49.82 140.02,50.45 140.47,51.09C140.92,51.73 141.3,52.43 141.68,53.12C142.06,53.81 142.38,54.52 142.73,55.23C143.08,55.94 143.42,56.65 143.76,57.36C144.1,58.07 144.44,58.78 144.78,59.49C145.12,60.2 145.45,60.91 145.79,61.62C146.13,62.33 146.46,63.05 146.79,63.76C147.12,64.47 147.44,65.19 147.76,65.91C148.08,66.63 148.4,67.35 148.71,68.07C149.02,68.79 149.33,69.52 149.63,70.25C149.93,70.98 150.23,71.7 150.52,72.43C150.81,73.16 151.13,73.88 151.37,74.63C151.62,75.38 151.87,76.14 151.99,76.91C152.11,77.68 152.16,78.48 152.1,79.26C152.04,80.04 151.89,80.83 151.64,81.57C151.39,82.31 151.02,83.03 150.59,83.68C150.16,84.33 149.62,84.93 149.04,85.45C148.46,85.97 147.79,86.42 147.1,86.78C146.41,87.14 145.66,87.43 144.9,87.62C144.14,87.81 143.34,87.92 142.56,87.93C141.78,87.95 140.98,87.87 140.22,87.71C139.46,87.55 138.7,87.31 137.98,86.99C137.26,86.68 136.57,86.28 135.93,85.82C135.3,85.36 134.7,84.82 134.17,84.24C133.64,83.66 133.19,83.01 132.78,82.34C132.37,81.68 132.03,80.96 131.69,80.25C131.35,79.54 131.07,78.81 130.77,78.08C130.47,77.35 130.18,76.62 129.87,75.89C129.57,75.16 129.25,74.44 128.94,73.72C128.63,73 128.32,72.28 128,71.56C127.68,70.84 127.36,70.12 127.03,69.4C126.71,68.68 126.38,67.97 126.05,67.26C125.72,66.55 125.39,65.83 125.05,65.12C124.71,64.41 124.38,63.69 124.03,62.99C123.68,62.29 123.29,61.6 122.93,60.9C122.57,60.2 122.19,59.51 121.87,58.79C121.55,58.07 121.22,57.35 121.03,56.59C120.84,55.84 120.71,55.04 120.72,54.26C120.73,53.48 120.86,52.67 121.1,51.93C121.34,51.19 121.71,50.47 122.15,49.83C122.59,49.19 123.15,48.59 123.75,48.1C124.35,47.61 125.05,47.21 125.76,46.89C126.47,46.57 127.24,46.34 128.01,46.19C128.78,46.04 129.58,45.98 130.36,45.98Z" fill="#fffdf7"/>
    <path d="M176.61,37.08C177.32,37.15 178.04,37.36 178.72,37.59C179.4,37.82 180.07,38.14 180.7,38.48C181.33,38.82 181.94,39.22 182.52,39.65C183.1,40.08 183.67,40.54 184.2,41.03C184.73,41.52 185.24,42.04 185.71,42.59C186.18,43.14 186.62,43.72 187.03,44.31C187.45,44.9 187.83,45.52 188.2,46.14C188.57,46.76 188.92,47.39 189.26,48.03C189.61,48.67 189.94,49.32 190.27,49.96C190.6,50.6 190.93,51.24 191.26,51.89C191.59,52.54 191.91,53.19 192.23,53.84C192.55,54.49 192.86,55.14 193.16,55.8C193.46,56.46 193.76,57.12 194.05,57.78C194.34,58.44 194.64,59.1 194.92,59.77C195.2,60.44 195.47,61.11 195.74,61.78C196.01,62.45 196.28,63.12 196.53,63.8C196.79,64.48 197.03,65.16 197.27,65.84C197.51,66.52 197.77,67.21 197.97,67.9C198.17,68.6 198.36,69.3 198.47,70.01C198.58,70.72 198.64,71.46 198.63,72.18C198.62,72.9 198.58,73.64 198.4,74.33C198.23,75.02 197.99,75.77 197.58,76.33C197.17,76.9 196.58,77.43 195.95,77.72C195.33,78.01 194.54,78.09 193.83,78.08C193.12,78.07 192.39,77.88 191.71,77.65C191.03,77.42 190.37,77.07 189.76,76.69C189.15,76.31 188.57,75.86 188.03,75.38C187.49,74.9 186.99,74.38 186.53,73.82C186.07,73.26 185.66,72.66 185.28,72.05C184.9,71.44 184.56,70.78 184.25,70.13C183.94,69.48 183.67,68.81 183.4,68.14C183.13,67.47 182.89,66.79 182.63,66.11C182.38,65.43 182.13,64.75 181.87,64.07C181.61,63.39 181.34,62.72 181.07,62.05C180.8,61.38 180.53,60.71 180.25,60.04C179.97,59.37 179.68,58.71 179.39,58.05C179.1,57.39 178.79,56.73 178.49,56.07C178.19,55.41 177.88,54.75 177.57,54.1C177.26,53.45 176.94,52.8 176.61,52.15C176.29,51.5 175.96,50.86 175.62,50.22C175.28,49.58 174.94,48.95 174.59,48.31C174.24,47.68 173.87,47.05 173.53,46.41C173.19,45.77 172.82,45.15 172.54,44.48C172.26,43.82 171.99,43.12 171.86,42.42C171.73,41.72 171.63,40.95 171.76,40.26C171.89,39.57 172.17,38.81 172.62,38.3C173.07,37.79 173.79,37.39 174.45,37.19C175.11,36.99 175.9,37.01 176.61,37.08Z" fill="#fffdf7"/>
  </g>
</svg>
